<?xml version="1.0" standalone="no"?>
<!DOCTYPE svg PUBLIC "-//W3C//DTD SVG 20010904//EN"
 "http://www.w3.org/TR/2001/REC-SVG-20010904/DTD/svg10.dtd">
<svg version="1.0" xmlns="http://www.w3.org/2000/svg"
 width="32.000000pt" height="32.000000pt" viewBox="0 0 32.000000 32.000000"
 preserveAspectRatio="xMidYMid meet">

<g transform="translate(0.000000,32.000000) scale(0.100000,-0.100000)"
fill="#000000" stroke="none">
<path d="M25 249 c-15 -24 16 -30 141 -27 107 3 129 6 129 18 0 12 -23 15
-132 18 -89 2 -134 -1 -138 -9z"/>
<path d="M25 169 c-15 -24 16 -30 141 -27 107 3 129 6 129 18 0 12 -23 15
-132 18 -89 2 -134 -1 -138 -9z"/>
<path d="M25 89 c-15 -24 16 -30 141 -27 107 3 129 6 129 18 0 12 -23 15 -132
18 -89 2 -134 -1 -138 -9z"/>
</g>
</svg>
